<svg width="400" height="200" viewBox="0 0 400 200" xmlns="http://www.w3.org/2000/svg">
  <defs>
    <linearGradient id="grad3" x1="0%" y1="0%" x2="100%" y2="100%">
      <stop offset="0%" style="stop-color:#dc2626;stop-opacity:1" />
      <stop offset="100%" style="stop-color:#b91c1c;stop-opacity:1" />
    </linearGradient>
  </defs>
  <rect width="400" height="200" fill="url(#grad3)"/>
  <!-- Ad serving icons -->
  <rect x="80" y="60" width="40" height="20" fill="white" opacity="0.9" rx="2"/>
  <rect x="130" y="40" width="40" height="20" fill="white" opacity="0.9" rx="2"/>
  <rect x="180" y="80" width="40" height="20" fill="white" opacity="0.9" rx="2"/>
  <rect x="230" y="50" width="40" height="20" fill="white" opacity="0.9" rx="2"/>
  <rect x="280" y="70" width="40" height="20" fill="white" opacity="0.9" rx="2"/>
  <!-- Lightning bolts -->
  <polygon points="90,50 95,45 100,55 105,50 110,70 95,60" fill="yellow" opacity="0.8"/>
  <polygon points="240,35 245,30 250,40 255,35 260,55 245,45" fill="yellow" opacity="0.8"/>
  <text x="200" y="140" text-anchor="middle" fill="white" font-family="Arial, sans-serif" font-size="18" font-weight="bold">AD SERVING</text>
  <text x="200" y="160" text-anchor="middle" fill="white" font-family="Arial, sans-serif" font-size="12" opacity="0.8">Real-time Platform</text>
</svg>