<svg width="400" height="200" viewBox="0 0 400 200" xmlns="http://www.w3.org/2000/svg">
  <defs>
    <linearGradient id="grad6" x1="0%" y1="0%" x2="100%" y2="100%">
      <stop offset="0%" style="stop-color:#7c3aed;stop-opacity:1" />
      <stop offset="100%" style="stop-color:#6d28d9;stop-opacity:1" />
    </linearGradient>
  </defs>
  <rect width="400" height="200" fill="url(#grad6)"/>
  <!-- Dashboard gauges and waves -->
  <circle cx="150" cy="80" r="25" fill="none" stroke="white" stroke-width="3" opacity="0.8"/>
  <circle cx="150" cy="80" r="20" fill="none" stroke="white" stroke-width="2" opacity="0.6"/>
  <line x1="150" y1="80" x2="165" y2="65" stroke="white" stroke-width="2" opacity="0.9"/>
  <circle cx="250" cy="80" r="25" fill="none" stroke="white" stroke-width="3" opacity="0.8"/>
  <circle cx="250" cy="80" r="20" fill="none" stroke="white" stroke-width="2" opacity="0.6"/>
  <line x1="250" y1="80" x2="265" y2="70" stroke="white" stroke-width="2" opacity="0.9"/>
  <!-- Wave pattern -->
  <path d="M 50 120 Q 70 110 90 120 Q 110 130 130 120 Q 150 110 170 120 Q 190 130 210 120 Q 230 110 250 120 Q 270 130 290 120 Q 310 110 330 120 Q 350 130 370 120" stroke="white" stroke-width="2" fill="none" opacity="0.6"/>
  <text x="200" y="140" text-anchor="middle" fill="white" font-family="Arial, sans-serif" font-size="18" font-weight="bold">MARINE DASHBOARD</text>
  <text x="200" y="160" text-anchor="middle" fill="white" font-family="Arial, sans-serif" font-size="12" opacity="0.8">Sensor Monitoring</text>
</svg>